<svg width="124px" height="28px" viewBox="30 14 124 28" version="1.1" xmlns="http://www.w3.org/2000/svg" xmlns:xlink="http://www.w3.org/1999/xlink">
    <!-- Generator: Sketch 42 (36781) - http://www.bohemiancoding.com/sketch -->
    <desc>Created with Sketch.</desc>
    <defs>
        <polygon id="path-1" points="0 26.6922741 123.274162 26.6922741 123.274162 0.154678306 0 0.154678306"></polygon>
    </defs>
    <g id="Page-1" stroke="none" stroke-width="1" fill="none" fill-rule="evenodd" transform="translate(30.000000, 14.000000)">
        <path d="M71.9579565,13.0249742 L66.5233411,26.5452955 L67.8867003,26.5452955 L69.5152712,22.3416045 L75.6695515,22.3416045 L77.3166017,26.5452955 L78.6991246,26.5452955 L73.3972861,13.0249742 L71.9579565,13.0249742 Z M72.6208147,14.3127054 L75.2339199,21.2431148 L69.9129177,21.2431148 L72.6208147,14.3127054 Z" id="Fill-1" fill="#FFFFFF"></path>
        <g id="Group-16" transform="translate(0.000000, 0.187530)">
            <path d="M83.9633201,25.2596176 C84.9351927,25.2596176 85.7715506,25.155244 86.4720517,24.9471811 C87.172895,24.7387761 87.7505432,24.4075181 88.2053385,23.953065 C88.6594493,23.498612 88.9937872,22.9113819 89.208352,22.1917172 C89.4229168,21.4723946 89.5307125,20.6076333 89.5307125,19.5974334 C89.5307125,18.5879179 89.4229168,17.7231567 89.208352,17.0034919 C88.9937872,16.2838271 88.6594493,15.6969393 88.2053385,15.2424863 C87.7505432,14.787691 87.172895,14.4567752 86.4720517,14.2480279 C85.7715506,14.0399651 84.9351927,13.9355914 83.9633201,13.9355914 L81.2177802,13.9355914 L81.2177802,25.2596176 L83.9633201,25.2596176 L83.9633201,25.2596176 Z M84.6073568,12.8374439 C86.6647151,12.8880908 88.2145781,13.4653968 89.255919,14.5703885 C90.2972599,15.6746958 90.8177592,17.3508337 90.8177592,19.5974334 C90.8177592,21.8447176 90.2972599,23.5205133 89.255919,24.6251628 C88.2145781,25.7298123 86.6647151,26.3074605 84.6073568,26.3577652 L79.9300491,26.3577652 L79.9300491,12.8374439 L84.6073568,12.8374439 L84.6073568,12.8374439 Z" id="Fill-2" fill="#FFFFFF"></path>
            <polygon id="Fill-4" fill="#FFFFFF" points="94.7566149 12.8375124 99.2443391 24.6916197 103.902825 12.8375124 105.796266 12.8375124 105.796266 26.3578336 104.508877 26.3578336 104.508877 14.6741461 104.470892 14.6741461 99.8503906 26.3578336 98.6386298 26.3578336 94.1885486 14.6741461 94.1505634 14.6741461 94.1505634 26.3578336 92.8631745 26.3578336 92.8631745 12.8375124"></polygon>
            <mask id="mask-2" fill="white">
                <use xlink:href="#path-1"></use>
            </mask>
            <g id="Clip-7"></g>
            <polygon id="Fill-6" fill="#FFFFFF" mask="url(#mask-2)" points="108.541737 26.3579363 109.829811 26.3579363 109.829811 12.837615 108.541737 12.837615"></polygon>
            <polygon id="Fill-8" fill="#FFFFFF" mask="url(#mask-2)" points="114.07135 12.8375124 121.948651 24.2748096 121.986293 24.2748096 121.986293 12.8375124 123.274367 12.8375124 123.274367 26.3578336 121.835037 26.3578336 113.957737 14.9205364 113.919751 14.9205364 113.919751 26.3578336 112.63202 26.3578336 112.63202 12.8375124"></polygon>
            <path d="M0,0.166244959 C3.61030118,0.166587167 7.22094457,0.191910607 10.8309035,0.156320908 C12.4916421,0.139894893 14.1058402,1.59393942 14.1896814,3.26562863 C14.2283509,4.040389 14.2379328,4.8165182 14.2427237,5.59230519 C14.2509367,6.89851558 14.2451192,8.20472597 14.2451192,9.5639787 L13.8734806,9.5639787 C10.3976674,9.5639787 6.92219642,9.56432091 3.44672545,9.56363649 C1.85990397,9.56329428 0.469852466,8.48533706 0.0694683544,6.94847804 C0.0581754692,6.90535976 0.0236123963,6.86874343 0,6.82904723 L0,0.166244959" id="Fill-9" fill="#FFFFFF" mask="url(#mask-2)"></path>
            <path d="M45.950613,18.2172033 C45.9150233,17.3917961 45.6970364,16.6567319 45.1279434,16.0588934 C44.4486593,15.344704 43.5763694,15.1034469 42.6257138,15.0887319 C41.476235,15.0712793 40.4869098,15.4264918 39.7833289,16.3857027 C39.3873935,16.9257079 39.1594825,17.532786 39.0975427,18.2172033 L45.950613,18.2172033 Z M41.8437671,26.6923426 C41.318819,26.5506682 40.7788138,26.4497166 40.2709762,26.2611597 C37.6085929,25.2728611 36.0518858,23.352044 35.7083083,20.5435377 C35.4259862,18.2353404 36.0371708,16.1625826 37.7536894,14.5097149 C38.9777697,13.3311483 40.4711682,12.7315988 42.1517549,12.5536503 C43.250929,12.4369571 44.3264908,12.5180606 45.3637252,12.9016765 C47.2842001,13.6117594 48.4056178,15.0531422 48.9839504,16.9612976 C49.3607221,18.2048838 49.4134223,19.4857708 49.3631176,20.8299663 L44.241623,20.8299663 L39.0797479,20.8299663 C39.2272398,21.9688367 39.7251534,22.8486551 40.6727291,23.4403338 C42.2013751,24.3947537 44.3672136,24.0994277 45.743919,22.7627607 C45.9365825,22.5755726 46.1158998,22.3750383 46.3195139,22.1618423 C47.1284952,22.7720003 47.9361076,23.3814739 48.763568,24.0056625 C47.8964113,25.0836197 46.8581503,25.8761749 45.5690504,26.3148864 C45.1248636,26.4661426 44.6635663,26.5677786 44.2101399,26.6923426 L41.8437671,26.6923426 Z" id="Fill-10" fill="#FFFFFF" mask="url(#mask-2)"></path>
            <path d="M24.5596641,20.3187408 C23.5535707,20.3604903 22.6662237,20.3793117 21.7819565,20.4395405 C21.0787178,20.4874497 20.3877985,20.6205688 19.7519749,20.9535378 C19.1592695,21.2635789 18.8180875,21.7481463 18.8252739,22.4188753 C18.8328024,23.0824178 19.1972546,23.5440573 19.7844847,23.8267216 C20.7467754,24.2900721 21.7340473,24.2360031 22.7165283,23.9133004 C23.5388557,23.6432978 24.1188993,23.0844711 24.3221713,22.2419534 C24.4655567,21.647537 24.4782184,21.0216374 24.5596641,20.3187408 L24.5596641,20.3187408 Z M19.2407151,26.6923768 C18.7978972,26.5592576 18.3407064,26.4617282 17.9153411,26.2872017 C16.5598526,25.7311127 15.5972197,24.7873013 15.4055829,23.2911651 C15.1287361,21.1301175 15.9623564,19.4467932 18.2534432,18.6107775 C19.575053,18.1286055 20.9551804,17.9951441 22.3483118,17.9657142 C23.12273,17.948946 23.8974904,17.9626343 24.6633533,17.9626343 C24.8077653,16.7659307 24.2694711,15.9080136 23.4752049,15.5059185 C22.448579,14.9861035 21.3757549,15.0001341 20.2916379,15.2677412 C19.4409072,15.4778574 18.6996833,15.9059604 18.0180037,16.5147495 C17.5536265,16.0483192 17.1022533,15.5942083 16.6501957,15.1411241 C16.1899251,14.6794846 16.1858186,14.6760625 16.6744925,14.2623323 C17.8701695,13.2504213 19.2790425,12.7460058 20.8131639,12.5687417 C22.0803625,12.4222764 23.3403747,12.4671057 24.5665082,12.8606457 C26.3326471,13.427001 27.3212878,14.673667 27.6326977,16.4685514 C27.7329648,17.0472262 27.7736876,17.642327 27.7771097,18.2302415 C27.7921669,20.8139167 27.7836117,23.3979342 27.7836117,25.9819516 L27.7836117,26.3713851 L24.7174223,26.3713851 L24.7174223,24.6216723 C24.6962053,24.6144859 24.6749884,24.6069573 24.6537715,24.5997709 C24.52339,24.76232 24.3974572,24.9289756 24.2619426,25.087076 C23.5374869,25.9306203 22.6179722,26.430245 21.5283799,26.628726 C21.46952,26.6396766 21.4144244,26.6708176 21.35796,26.6923768 L19.2407151,26.6923768 Z" id="Fill-11" fill="#FFFFFF" mask="url(#mask-2)"></path>
            <path d="M33.1263784,26.6922741 C32.9491143,26.6467604 32.7718502,26.60022 32.5939017,26.5560751 C31.1028986,26.1878586 30.2928908,25.1865561 30.0269947,23.7236141 C29.9164613,23.1158516 29.8647878,22.4902942 29.858628,21.8722654 C29.8380955,19.8597364 29.8507572,17.8465229 29.8507572,15.8336517 L29.8507572,15.4318987 L28.4213517,15.4318987 L28.4213517,12.8341929 L29.8507572,12.8341929 L29.8507572,12.0303448 C29.8510994,11.4701493 29.8555481,10.9099537 29.8483618,10.3497582 C29.8459663,10.1728363 29.8856625,10.0862575 30.0879078,10.0879686 C31.0734687,10.0961816 32.0593718,10.0958394 33.0449327,10.0879686 C33.2393072,10.0865997 33.2933762,10.1577791 33.2913229,10.342914 C33.2837943,11.048206 33.2885852,11.7538402 33.2885852,12.4594745 L33.2885852,12.8300864 L35.7832863,12.8300864 L35.7832863,15.4069175 L33.3245172,15.4069175 C33.30946,15.48323 33.2916651,15.530797 33.2916651,15.5780218 C33.294745,17.80888 33.2858476,20.0393959 33.3087756,22.2699118 C33.3217795,23.5590118 34.1348672,23.9573426 35.3281488,23.7961624 C35.4910401,23.774261 35.6491405,23.7171122 35.7559096,23.6900777 C36.3650409,24.4052938 36.9584307,25.1020306 37.5812505,25.8333304 C37.3697655,25.9414684 37.1285084,26.1005954 36.8639811,26.1929917 C36.3304779,26.3784688 35.7843129,26.528014 35.2436232,26.6922741 L33.1263784,26.6922741 Z" id="Fill-12" fill="#FFFFFF" mask="url(#mask-2)"></path>
            <path d="M30.0640559,0.167408468 L30.0640559,0.931218158 C30.0640559,2.62207106 30.0650825,4.31326617 30.0637137,6.00411907 C30.0623448,8.01322601 28.517615,9.56274675 26.5170633,9.56308896 C23.0833418,9.56343117 19.6496203,9.56308896 16.2158987,9.56308896 L15.8336517,9.56308896 C15.8274919,9.42996979 15.8192789,9.32901825 15.8189367,9.2280667 C15.8182523,7.32983536 15.8360471,5.43126181 15.8134614,3.53303047 C15.7922444,1.76346958 17.4516141,0.133529812 19.2026958,0.154746748 C22.6980148,0.19718062 26.1947027,0.167408468 29.6907062,0.167408468 L30.0640559,0.167408468 Z" id="Fill-13" fill="#FFFFFF" mask="url(#mask-2)"></path>
            <path d="M55.5563069,16.8542205 C56.4771904,15.5788089 57.3734348,14.3472 58.2553065,13.105667 C58.4031406,12.897262 58.5564501,12.8154741 58.8148176,12.8195806 C59.8626605,12.8353222 60.9105034,12.8260826 61.9586884,12.8260826 L62.3994532,12.8260826 C60.8208447,14.9665976 59.2904876,17.0410664 57.7594462,19.1172463 C59.5652812,21.5325549 61.356059,23.9280154 63.183111,26.3717273 C63.0126911,26.3802825 62.9048953,26.3902065 62.7970996,26.3902065 C61.6452253,26.3912332 60.493351,26.3837046 59.3418189,26.3963663 C59.0988508,26.399104 58.9503323,26.3255291 58.8079735,26.1273903 C57.7563663,24.6627373 56.6927818,23.2066395 55.6326195,21.7484885 C55.6028473,21.7070813 55.5686265,21.6690961 55.5152419,21.6030498 C54.9745522,22.3401673 54.4437866,23.0622275 53.9147321,23.7853144 C53.3333196,24.5795806 52.756698,25.3776112 52.1687836,26.1670865 C52.0969198,26.2635893 51.9682493,26.3799403 51.8645601,26.3809669 C50.5792244,26.3956819 49.2938888,26.3905488 47.9284763,26.3905488 C49.7623724,23.9382816 51.557599,21.537688 53.3682249,19.1169041 C51.8190464,17.0434619 50.2736321,14.9748107 48.685784,12.8493528 C48.8712611,12.8380599 48.9698172,12.826767 49.0680311,12.826767 C50.2301716,12.8253982 51.3923122,12.8319001 52.5544527,12.8209495 C52.777915,12.8188962 52.9093231,12.889049 53.032176,13.0765793 C53.8007766,14.2462485 54.5820389,15.4080468 55.3591948,16.5718984 C55.4156592,16.6564239 55.4755457,16.7388962 55.5563069,16.8542205" id="Fill-14" fill="#FFFFFF" mask="url(#mask-2)"></path>
            <path d="M14.2011454,11.2532232 C14.2011454,12.3749832 14.2055941,13.4532826 14.1990921,14.5312398 C14.1963544,15.0281268 14.2312597,15.5356222 14.1460498,16.0198474 C13.933196,17.2264751 12.9555059,18.0648863 11.6886495,18.0796012 C9.12584897,18.1090312 6.56236403,18.0864454 3.9992213,18.0843921 C3.9793732,18.0843921 3.95918289,18.0751525 3.90271846,18.061122 C3.89724313,17.9618814 3.88560803,17.8520325 3.88560803,17.7421835 C3.8842392,16.4346043 3.88150153,15.1270251 3.88560803,13.8194458 C3.89005674,12.3715611 5.00565692,11.2542498 6.44498647,11.2532232 C8.91470624,11.2518544 11.384426,11.2532232 13.8541458,11.2532232 L14.2011454,11.2532232" id="Fill-15" fill="#FFFFFF" mask="url(#mask-2)"></path>
        </g>
    </g>
</svg>