<?xml version="1.0" encoding="UTF-8"?>
<svg width="16px" height="16px" viewBox="0 0 16 16" version="1.1" xmlns="http://www.w3.org/2000/svg" xmlns:xlink="http://www.w3.org/1999/xlink">
    <!-- Generator: sketchtool 40.1 (33804) - http://www.bohemiancoding.com/sketch -->
    <title>14A41645-D15F-4E88-A8C4-73E03906356B</title>
    <desc>Created with sketchtool.</desc>
    <defs></defs>
    <g id="Page-1" stroke="none" stroke-width="1" fill="none" fill-rule="evenodd">
        <g id="-1440-styleguide" transform="translate(-934.000000, -848.000000)" fill="#000000">
            <g id="info" transform="translate(934.000000, 848.000000)">
                <g id="Page-1">
                    <path d="M9.36459344,4.8934907 C9.18317283,5.0763015 8.96097314,5.16782275 8.69776265,5.16782275 C8.43084498,5.17616393 8.20864528,5.09113026 8.03116357,4.91249004 C7.85368185,4.73408153 7.76517269,4.51025994 7.76517269,4.24148867 C7.76517269,3.95163276 7.85576714,3.7150677 8.03741945,3.5324886 C8.21907175,3.34967779 8.44127145,3.25815654 8.70401854,3.25815654 C8.96305843,3.24981536 9.18317283,3.33484903 9.36459344,3.51348925 C9.54601405,3.69189776 9.6370719,3.91363406 9.6370719,4.17823474 C9.6370719,4.47249294 9.54601405,4.71091159 9.36459344,4.8934907 L9.36459344,4.8934907 Z M8.09673449,12.7425386 L6.3629281,12.7425386 L7.5397292,5.96903917 L9.27376729,5.96903917 L8.09673449,12.7425386 Z M7.99988415,0 C3.58160886,0 0,3.58184056 0,8.00011585 C0,12.4183911 3.58160886,16.0002317 7.99988415,16.0002317 C12.4183911,16.0002317 16,12.4183911 16,8.00011585 C16,3.58184056 12.4183911,0 7.99988415,0 L7.99988415,0 Z"></path>
                </g>
            </g>
        </g>
    </g>
</svg>