<?xml version="1.0" encoding="UTF-8"?>
<svg width="20px" height="20px" viewBox="0 0 20 20" version="1.1" xmlns="http://www.w3.org/2000/svg" xmlns:xlink="http://www.w3.org/1999/xlink">
    <!-- Generator: sketchtool 40.1 (33804) - http://www.bohemiancoding.com/sketch -->
    <title>28F61B4B-3E6A-4611-82DA-7E9DD4410A0A</title>
    <desc>Created with sketchtool.</desc>
    <defs></defs>
    <g id="Page-1" stroke="none" stroke-width="1" fill="none" fill-rule="evenodd" stroke-linecap="round" stroke-linejoin="round">
        <g id="-1440-styleguide" transform="translate(-502.000000, -1454.000000)" stroke="#D8D8D8">
            <g id="public" transform="translate(502.000000, 1454.000000)">
                <g id="Public" transform="translate(1.000000, 1.000000)">
                    <g transform="translate(0.000000, 0.207100)">
                        <path d="M8.883,0 C3.97730769,0 0,3.97730769 0,8.883 C0,13.7886923 3.97730769,17.766 8.883,17.766 C13.7886923,17.766 17.766,13.7886923 17.766,8.883 C17.766,3.97730769 13.7886923,0 8.883,0 L8.883,0 Z" id="Stroke-1"></path>
                        <path d="M8.883,5 C3.97730769,5 0,6.78061538 0,8.97661538 C0,11.1726154 3.97730769,12.9532308 8.883,12.9532308 C13.7886923,12.9532308 17.766,11.1726154 17.766,8.97661538 C17.766,6.78061538 13.7886923,5 8.883,5 L8.883,5 Z" id="Stroke-3"></path>
                        <path d="M8.80807692,0 C6.15238462,0 4,3.97730769 4,8.883 C4,13.7886923 6.15238462,17.766 8.80807692,17.766 C11.4637692,17.766 13.6161538,13.7886923 13.6161538,8.883 C13.6161538,3.97730769 11.4637692,0 8.80807692,0 L8.80807692,0 Z" id="Stroke-5"></path>
                        <path d="M9,0 L9,17.766" id="Stroke-7"></path>
                    </g>
                </g>
            </g>
        </g>
    </g>
</svg>